<?xml version="1.0" encoding="iso-8859-1"?>
<!-- Generator: Adobe Illustrator 19.0.0, SVG Export Plug-In . SVG Version: 6.00 Build 0)  -->
<svg version="1.1" id="Layer_1" xmlns="http://www.w3.org/2000/svg" xmlns:xlink="http://www.w3.org/1999/xlink" x="0px" y="0px"
	 viewBox="0 0 512 512" style="enable-background:new 0 0 512 512;" xml:space="preserve">
<g transform="translate(0 -1)">
	<path style="fill:#43B05B;" d="M264.828,389.414c0-67.972,55.614-123.586,123.586-123.586c34.428,0,66.207,14.124,88.276,37.076V1
		H0v476.69h301.903C278.952,455.621,264.828,423.841,264.828,389.414"/>
	<path style="fill:#F0CE49;" d="M385.766,265.828c0.883,0,1.766,0,2.648,0c34.428,0,66.207,14.124,88.276,37.076v-63.559
		L384,149.303l92.69-91.807V1h-56.497L176.552,244.641V1h-70.621v105.931H0v70.621h105.931v137.71L92.69,328.503L0,421.193v56.497
		h56.497l271.007-271.007L385.766,265.828z"/>
	<path style="fill:#ED7161;" d="M512,389.414c0-67.972-55.614-123.586-123.586-123.586s-123.586,55.614-123.586,123.586
		S320.441,513,388.414,513S512,457.386,512,389.414"/>
	<g>
		<path style="fill:#FFFFFF;" d="M432.552,442.379c-2.648,0-4.414-0.883-6.179-2.648l-88.276-88.276
			c-3.531-3.531-3.531-8.828,0-12.359c3.531-3.531,8.828-3.531,12.359,0l88.276,88.276c3.531,3.531,3.531,8.828,0,12.359
			C436.966,441.497,435.2,442.379,432.552,442.379z"/>
		<path style="fill:#FFFFFF;" d="M344.276,442.379c-2.648,0-4.414-0.883-6.179-2.648c-3.531-3.531-3.531-8.828,0-12.359
			l88.276-88.276c3.531-3.531,8.828-3.531,12.359,0c3.531,3.531,3.531,8.828,0,12.359l-88.276,88.276
			C348.69,441.497,346.924,442.379,344.276,442.379z"/>
	</g>
</g>
<g>
</g>
<g>
</g>
<g>
</g>
<g>
</g>
<g>
</g>
<g>
</g>
<g>
</g>
<g>
</g>
<g>
</g>
<g>
</g>
<g>
</g>
<g>
</g>
<g>
</g>
<g>
</g>
<g>
</g>
</svg>
